<?xml version="1.0" standalone="no"?>
<!DOCTYPE svg PUBLIC "-//W3C//DTD SVG 20010904//EN"
 "http://www.w3.org/TR/2001/REC-SVG-20010904/DTD/svg10.dtd">
<svg version="1.0" xmlns="http://www.w3.org/2000/svg"
 width="158.000000pt" height="158.000000pt" viewBox="0 0 158.000000 158.000000"
 preserveAspectRatio="xMidYMid meet">
<metadata>
Created by potrace 1.11, written by Peter Selinger 2001-2013
</metadata>
<g transform="translate(0.000000,158.000000) scale(0.100000,-0.100000)"
fill="#000000" stroke="none">
<path d="M211 1069 c-122 -37 -205 -152 -204 -281 1 -82 26 -141 83 -198 59
-59 119 -84 205 -83 99 0 175 38 229 114 15 22 15 21 65 -29 118 -119 297
-117 415 4 l40 42 43 -45 c60 -62 121 -87 208 -87 158 1 285 123 285 276 0
264 -295 394 -486 213 l-54 -51 -30 38 c-18 22 -56 49 -93 67 -53 26 -72 30
-132 27 -85 -3 -156 -36 -207 -96 l-35 -40 -30 38 c-46 56 -119 92 -200 97
-38 3 -83 0 -102 -6z m174 -29 c49 -18 104 -60 126 -97 18 -28 19 -38 10 -61
-18 -44 -19 -103 -4 -161 13 -51 12 -56 -9 -86 -28 -42 -103 -92 -153 -103
-166 -35 -325 86 -326 250 -1 68 5 91 35 143 65 110 204 160 321 115z m517 -6
c53 -27 88 -56 109 -90 16 -26 17 -37 8 -60 -15 -41 -15 -144 0 -182 12 -28
11 -35 -4 -59 -47 -73 -132 -116 -226 -116 -75 1 -128 23 -184 78 -41 41 -50
70 -36 109 14 36 14 119 -1 167 -11 37 -9 42 19 77 74 91 218 126 315 76z
m518 -10 c123 -67 174 -216 116 -341 -82 -174 -303 -211 -436 -73 -44 46 -45
49 -30 100 11 37 14 101 6 135 -18 78 -18 79 15 118 82 96 219 121 329 61z
m-861 -234 c0 -30 -4 -64 -9 -75 -6 -17 -8 -15 -14 15 -10 60 -10 74 -2 115 7
33 10 37 16 20 5 -11 9 -45 9 -75z m499 5 c0 -27 -3 -61 -7 -75 l-7 -25 -8 23
c-11 33 -9 119 4 162 5 18 19 -44 18 -85z"/>
</g>
</svg>
